<mxfile host="app.diagrams.net" agent="Mozilla/5.0 (Windows NT 10.0; Win64; x64) AppleWebKit/537.36 (KHTML, like Gecko) Chrome/140.0.0.0 Safari/537.36" version="28.2.5">
  <diagram name="PÃ¡gina-1" id="4yHUaEf5P_3Kv5NcZR2j">
    <mxGraphModel dx="2222" dy="1996" grid="1" gridSize="10" guides="1" tooltips="1" connect="1" arrows="1" fold="1" page="1" pageScale="1" pageWidth="827" pageHeight="1169" math="0" shadow="0">
      <root>
        <mxCell id="0" />
        <mxCell id="1" parent="0" />
        <mxCell id="Np-ihXZbCFiJYXieuMzo-1" value="FILME" style="whiteSpace=wrap;html=1;align=center;fillColor=#dae8fc;strokeColor=#6c8ebf;" vertex="1" parent="1">
          <mxGeometry x="115" y="-200" width="100" height="40" as="geometry" />
        </mxCell>
        <mxCell id="Np-ihXZbCFiJYXieuMzo-2" value="ATOR" style="whiteSpace=wrap;html=1;align=center;fillColor=#dae8fc;strokeColor=#6c8ebf;" vertex="1" parent="1">
          <mxGeometry x="-480" y="-190" width="100" height="40" as="geometry" />
        </mxCell>
        <mxCell id="Np-ihXZbCFiJYXieuMzo-54" style="edgeStyle=orthogonalEdgeStyle;shape=connector;rounded=0;orthogonalLoop=1;jettySize=auto;html=1;entryX=0.5;entryY=1;entryDx=0;entryDy=0;strokeColor=default;align=center;verticalAlign=middle;fontFamily=Helvetica;fontSize=11;fontColor=default;labelBackgroundColor=default;endArrow=none;endFill=0;exitX=0.5;exitY=0;exitDx=0;exitDy=0;" edge="1" parent="1" source="Np-ihXZbCFiJYXieuMzo-3" target="Np-ihXZbCFiJYXieuMzo-51">
          <mxGeometry relative="1" as="geometry">
            <mxPoint x="650" y="70" as="sourcePoint" />
          </mxGeometry>
        </mxCell>
        <mxCell id="Np-ihXZbCFiJYXieuMzo-65" value="1" style="edgeLabel;html=1;align=center;verticalAlign=middle;resizable=0;points=[];fontFamily=Helvetica;fontSize=11;fontColor=default;labelBackgroundColor=default;" vertex="1" connectable="0" parent="Np-ihXZbCFiJYXieuMzo-54">
          <mxGeometry x="-0.6857" relative="1" as="geometry">
            <mxPoint x="10" y="18" as="offset" />
          </mxGeometry>
        </mxCell>
        <mxCell id="Np-ihXZbCFiJYXieuMzo-3" value="&lt;span id=&quot;docs-internal-guid-3f4ea52f-7fff-d51b-65c3-a60f4eec7652&quot;&gt;&lt;span style=&quot;font-size: 12pt; font-family: Calibri, sans-serif; background-color: transparent; font-variant-numeric: normal; font-variant-east-asian: normal; font-variant-alternates: normal; font-variant-position: normal; font-variant-emoji: normal; vertical-align: baseline; white-space-collapse: preserve;&quot;&gt;REALIZADOR&lt;/span&gt;&lt;/span&gt;" style="whiteSpace=wrap;html=1;align=center;fillColor=#dae8fc;strokeColor=#6c8ebf;" vertex="1" parent="1">
          <mxGeometry x="570" y="150" width="100" height="40" as="geometry" />
        </mxCell>
        <mxCell id="Np-ihXZbCFiJYXieuMzo-56" style="edgeStyle=orthogonalEdgeStyle;shape=connector;rounded=0;orthogonalLoop=1;jettySize=auto;html=1;entryX=0;entryY=0.5;entryDx=0;entryDy=0;strokeColor=default;align=center;verticalAlign=middle;fontFamily=Helvetica;fontSize=11;fontColor=default;labelBackgroundColor=default;endArrow=none;endFill=0;exitX=0.5;exitY=0;exitDx=0;exitDy=0;" edge="1" parent="1" source="Np-ihXZbCFiJYXieuMzo-4" target="Np-ihXZbCFiJYXieuMzo-55">
          <mxGeometry relative="1" as="geometry">
            <mxPoint x="185" y="90" as="sourcePoint" />
            <Array as="points">
              <mxPoint x="175" y="90" />
              <mxPoint x="135" y="90" />
              <mxPoint x="135" y="45" />
            </Array>
          </mxGeometry>
        </mxCell>
        <mxCell id="Np-ihXZbCFiJYXieuMzo-66" value="1" style="edgeLabel;html=1;align=center;verticalAlign=middle;resizable=0;points=[];fontFamily=Helvetica;fontSize=11;fontColor=default;labelBackgroundColor=default;" vertex="1" connectable="0" parent="Np-ihXZbCFiJYXieuMzo-56">
          <mxGeometry x="-0.7513" relative="1" as="geometry">
            <mxPoint x="10" y="-2" as="offset" />
          </mxGeometry>
        </mxCell>
        <mxCell id="Np-ihXZbCFiJYXieuMzo-4" value="&lt;span id=&quot;docs-internal-guid-0fe82bfa-7fff-fc27-36c8-d96bbc81156f&quot;&gt;&lt;span style=&quot;font-size: 12pt; font-family: Calibri, sans-serif; background-color: transparent; font-variant-numeric: normal; font-variant-east-asian: normal; font-variant-alternates: normal; font-variant-position: normal; font-variant-emoji: normal; vertical-align: baseline; white-space-collapse: preserve;&quot;&gt;PRODUTOR&lt;/span&gt;&lt;/span&gt;" style="whiteSpace=wrap;html=1;align=center;fillColor=#dae8fc;strokeColor=#6c8ebf;" vertex="1" parent="1">
          <mxGeometry x="125" y="170" width="100" height="40" as="geometry" />
        </mxCell>
        <mxCell id="Np-ihXZbCFiJYXieuMzo-5" value="&lt;span id=&quot;docs-internal-guid-31a64d61-7fff-2b5b-810c-ccd645f68d75&quot;&gt;&lt;span style=&quot;font-size: 12pt; font-family: Calibri, sans-serif; background-color: transparent; font-variant-numeric: normal; font-variant-east-asian: normal; font-variant-alternates: normal; font-variant-position: normal; font-variant-emoji: normal; vertical-align: baseline; white-space-collapse: preserve;&quot;&gt;ORCAMENTO&lt;/span&gt;&lt;/span&gt;" style="whiteSpace=wrap;html=1;align=center;fillColor=#dae8fc;strokeColor=#6c8ebf;" vertex="1" parent="1">
          <mxGeometry x="50" y="-460" width="100" height="40" as="geometry" />
        </mxCell>
        <mxCell id="Np-ihXZbCFiJYXieuMzo-11" style="edgeStyle=none;shape=connector;rounded=0;orthogonalLoop=1;jettySize=auto;html=1;exitX=0;exitY=0.5;exitDx=0;exitDy=0;entryX=1;entryY=0.25;entryDx=0;entryDy=0;strokeColor=default;align=center;verticalAlign=middle;fontFamily=Helvetica;fontSize=11;fontColor=default;labelBackgroundColor=default;endArrow=none;endFill=0;" edge="1" parent="1" source="Np-ihXZbCFiJYXieuMzo-6" target="Np-ihXZbCFiJYXieuMzo-1">
          <mxGeometry relative="1" as="geometry" />
        </mxCell>
        <mxCell id="Np-ihXZbCFiJYXieuMzo-6" value="Codigo" style="ellipse;whiteSpace=wrap;html=1;align=center;fontStyle=4;fillColor=#e1d5e7;strokeColor=#9673a6;" vertex="1" parent="1">
          <mxGeometry x="265" y="-250" width="100" height="40" as="geometry" />
        </mxCell>
        <mxCell id="Np-ihXZbCFiJYXieuMzo-13" style="edgeStyle=none;shape=connector;rounded=0;orthogonalLoop=1;jettySize=auto;html=1;exitX=0;exitY=0.5;exitDx=0;exitDy=0;strokeColor=default;align=center;verticalAlign=middle;fontFamily=Helvetica;fontSize=11;fontColor=default;labelBackgroundColor=default;endArrow=none;endFill=0;entryX=1;entryY=1;entryDx=0;entryDy=0;" edge="1" parent="1" source="Np-ihXZbCFiJYXieuMzo-7" target="Np-ihXZbCFiJYXieuMzo-1">
          <mxGeometry relative="1" as="geometry">
            <mxPoint x="-205" y="-105" as="targetPoint" />
          </mxGeometry>
        </mxCell>
        <mxCell id="Np-ihXZbCFiJYXieuMzo-7" value="Titulo" style="ellipse;whiteSpace=wrap;html=1;align=center;fillColor=#e1d5e7;strokeColor=#9673a6;" vertex="1" parent="1">
          <mxGeometry x="235" y="-120" width="100" height="40" as="geometry" />
        </mxCell>
        <mxCell id="Np-ihXZbCFiJYXieuMzo-12" style="edgeStyle=none;shape=connector;rounded=0;orthogonalLoop=1;jettySize=auto;html=1;exitX=0;exitY=0.5;exitDx=0;exitDy=0;entryX=1;entryY=0.5;entryDx=0;entryDy=0;strokeColor=default;align=center;verticalAlign=middle;fontFamily=Helvetica;fontSize=11;fontColor=default;labelBackgroundColor=default;endArrow=none;endFill=0;" edge="1" parent="1" source="Np-ihXZbCFiJYXieuMzo-8" target="Np-ihXZbCFiJYXieuMzo-1">
          <mxGeometry relative="1" as="geometry" />
        </mxCell>
        <mxCell id="Np-ihXZbCFiJYXieuMzo-8" value="&lt;span id=&quot;docs-internal-guid-a491aabc-7fff-1a68-b70d-825bed3779c8&quot;&gt;&lt;span style=&quot;font-size: 12pt; font-family: Calibri, sans-serif; background-color: transparent; font-variant-numeric: normal; font-variant-east-asian: normal; font-variant-alternates: normal; font-variant-position: normal; font-variant-emoji: normal; vertical-align: baseline; white-space-collapse: preserve;&quot;&gt;Ano&lt;/span&gt;&lt;/span&gt;" style="ellipse;whiteSpace=wrap;html=1;align=center;fillColor=#e1d5e7;strokeColor=#9673a6;" vertex="1" parent="1">
          <mxGeometry x="265" y="-190" width="100" height="40" as="geometry" />
        </mxCell>
        <mxCell id="Np-ihXZbCFiJYXieuMzo-10" style="rounded=0;orthogonalLoop=1;jettySize=auto;html=1;exitX=0;exitY=0.5;exitDx=0;exitDy=0;entryX=1;entryY=0;entryDx=0;entryDy=0;endArrow=none;endFill=0;" edge="1" parent="1" source="Np-ihXZbCFiJYXieuMzo-9" target="Np-ihXZbCFiJYXieuMzo-1">
          <mxGeometry relative="1" as="geometry" />
        </mxCell>
        <mxCell id="Np-ihXZbCFiJYXieuMzo-9" value="&lt;span id=&quot;docs-internal-guid-a83c0207-7fff-3198-c3d1-d4115921daa0&quot;&gt;&lt;span style=&quot;font-size: 12pt; font-family: Calibri, sans-serif; background-color: transparent; font-variant-numeric: normal; font-variant-east-asian: normal; font-variant-alternates: normal; font-variant-position: normal; font-variant-emoji: normal; vertical-align: baseline; white-space-collapse: preserve;&quot;&gt;Direcao&lt;/span&gt;&lt;/span&gt;" style="ellipse;whiteSpace=wrap;html=1;align=center;fillColor=#e1d5e7;strokeColor=#9673a6;" vertex="1" parent="1">
          <mxGeometry x="215" y="-300" width="100" height="40" as="geometry" />
        </mxCell>
        <mxCell id="Np-ihXZbCFiJYXieuMzo-21" style="edgeStyle=none;shape=connector;rounded=0;orthogonalLoop=1;jettySize=auto;html=1;exitX=1;exitY=1;exitDx=0;exitDy=0;entryX=0;entryY=0;entryDx=0;entryDy=0;strokeColor=default;align=center;verticalAlign=middle;fontFamily=Helvetica;fontSize=11;fontColor=default;labelBackgroundColor=default;endArrow=none;endFill=0;" edge="1" parent="1" source="Np-ihXZbCFiJYXieuMzo-15" target="Np-ihXZbCFiJYXieuMzo-2">
          <mxGeometry relative="1" as="geometry" />
        </mxCell>
        <mxCell id="Np-ihXZbCFiJYXieuMzo-15" value="&lt;span id=&quot;docs-internal-guid-630f9066-7fff-420a-0741-c1174ba038bf&quot;&gt;&lt;span style=&quot;font-size: 12pt; font-family: Calibri, sans-serif; font-variant-numeric: normal; font-variant-east-asian: normal; font-variant-alternates: normal; font-variant-position: normal; font-variant-emoji: normal; vertical-align: baseline; white-space-collapse: preserve;&quot;&gt;Nome&lt;/span&gt;&lt;/span&gt;" style="ellipse;whiteSpace=wrap;html=1;align=center;fontFamily=Helvetica;fontSize=11;labelBackgroundColor=none;fillColor=#e1d5e7;strokeColor=#9673a6;" vertex="1" parent="1">
          <mxGeometry x="-610" y="-260" width="100" height="40" as="geometry" />
        </mxCell>
        <mxCell id="Np-ihXZbCFiJYXieuMzo-22" style="edgeStyle=none;shape=connector;rounded=0;orthogonalLoop=1;jettySize=auto;html=1;exitX=1;exitY=0.5;exitDx=0;exitDy=0;entryX=0;entryY=0.5;entryDx=0;entryDy=0;strokeColor=default;align=center;verticalAlign=middle;fontFamily=Helvetica;fontSize=11;fontColor=default;labelBackgroundColor=default;endArrow=none;endFill=0;" edge="1" parent="1" source="Np-ihXZbCFiJYXieuMzo-16" target="Np-ihXZbCFiJYXieuMzo-2">
          <mxGeometry relative="1" as="geometry" />
        </mxCell>
        <mxCell id="Np-ihXZbCFiJYXieuMzo-16" value="&lt;span id=&quot;docs-internal-guid-e9799310-7fff-8ec9-a85f-0b9e393117b9&quot;&gt;&lt;span style=&quot;font-size: 12pt; font-family: Calibri, sans-serif; font-variant-numeric: normal; font-variant-east-asian: normal; font-variant-alternates: normal; font-variant-position: normal; font-variant-emoji: normal; vertical-align: baseline; white-space-collapse: preserve;&quot;&gt;DataNascimento&lt;/span&gt;&lt;/span&gt;" style="ellipse;whiteSpace=wrap;html=1;align=center;fontFamily=Helvetica;fontSize=11;labelBackgroundColor=none;fillColor=#e1d5e7;strokeColor=#9673a6;" vertex="1" parent="1">
          <mxGeometry x="-630" y="-190" width="120" height="50" as="geometry" />
        </mxCell>
        <mxCell id="Np-ihXZbCFiJYXieuMzo-23" style="edgeStyle=none;shape=connector;rounded=0;orthogonalLoop=1;jettySize=auto;html=1;exitX=1;exitY=0;exitDx=0;exitDy=0;entryX=0;entryY=1;entryDx=0;entryDy=0;strokeColor=default;align=center;verticalAlign=middle;fontFamily=Helvetica;fontSize=11;fontColor=default;labelBackgroundColor=default;endArrow=none;endFill=0;dashed=1;" edge="1" parent="1" source="Np-ihXZbCFiJYXieuMzo-17" target="Np-ihXZbCFiJYXieuMzo-2">
          <mxGeometry relative="1" as="geometry" />
        </mxCell>
        <mxCell id="Np-ihXZbCFiJYXieuMzo-17" value="&lt;span id=&quot;docs-internal-guid-491ac8fb-7fff-edcc-02f4-893d20c167fb&quot;&gt;&lt;span style=&quot;font-size: 12pt; font-family: Calibri, sans-serif; font-variant-numeric: normal; font-variant-east-asian: normal; font-variant-alternates: normal; font-variant-position: normal; font-variant-emoji: normal; vertical-align: baseline; white-space-collapse: preserve;&quot;&gt;Idade &lt;/span&gt;&lt;/span&gt;" style="ellipse;whiteSpace=wrap;html=1;align=center;dashed=1;fontFamily=Helvetica;fontSize=11;labelBackgroundColor=none;fillColor=#e1d5e7;strokeColor=#9673a6;" vertex="1" parent="1">
          <mxGeometry x="-610" y="-100" width="100" height="40" as="geometry" />
        </mxCell>
        <mxCell id="Np-ihXZbCFiJYXieuMzo-24" style="edgeStyle=none;shape=connector;rounded=0;orthogonalLoop=1;jettySize=auto;html=1;exitX=0.5;exitY=0;exitDx=0;exitDy=0;entryX=0.5;entryY=1;entryDx=0;entryDy=0;strokeColor=default;align=center;verticalAlign=middle;fontFamily=Helvetica;fontSize=11;fontColor=default;labelBackgroundColor=default;endArrow=none;endFill=0;" edge="1" parent="1" source="Np-ihXZbCFiJYXieuMzo-18" target="Np-ihXZbCFiJYXieuMzo-2">
          <mxGeometry relative="1" as="geometry" />
        </mxCell>
        <mxCell id="Np-ihXZbCFiJYXieuMzo-18" value="&lt;span id=&quot;docs-internal-guid-e20e87bd-7fff-170c-325a-36981eccaf40&quot;&gt;&lt;span style=&quot;font-size: 12pt; font-family: Calibri, sans-serif; font-variant-numeric: normal; font-variant-east-asian: normal; font-variant-alternates: normal; font-variant-position: normal; font-variant-emoji: normal; vertical-align: baseline; white-space-collapse: preserve;&quot;&gt;Salario&lt;/span&gt;&lt;/span&gt;" style="ellipse;whiteSpace=wrap;html=1;align=center;fontFamily=Helvetica;fontSize=11;labelBackgroundColor=none;fillColor=#e1d5e7;strokeColor=#9673a6;" vertex="1" parent="1">
          <mxGeometry x="-490" y="-100" width="100" height="40" as="geometry" />
        </mxCell>
        <mxCell id="Np-ihXZbCFiJYXieuMzo-20" style="edgeStyle=none;shape=connector;rounded=0;orthogonalLoop=1;jettySize=auto;html=1;exitX=0.5;exitY=1;exitDx=0;exitDy=0;entryX=0.5;entryY=0;entryDx=0;entryDy=0;strokeColor=default;align=center;verticalAlign=middle;fontFamily=Helvetica;fontSize=11;fontColor=default;labelBackgroundColor=default;endArrow=none;endFill=0;" edge="1" parent="1" source="Np-ihXZbCFiJYXieuMzo-19" target="Np-ihXZbCFiJYXieuMzo-2">
          <mxGeometry relative="1" as="geometry" />
        </mxCell>
        <mxCell id="Np-ihXZbCFiJYXieuMzo-19" value="&lt;span id=&quot;docs-internal-guid-03820142-7fff-3fed-28cf-dba5920c03b8&quot;&gt;&lt;span style=&quot;font-size: 12pt; font-family: Calibri, sans-serif; font-variant-numeric: normal; font-variant-east-asian: normal; font-variant-alternates: normal; font-variant-position: normal; font-variant-emoji: normal; text-decoration-skip-ink: none; vertical-align: baseline; white-space-collapse: preserve;&quot;&gt;NContribuinte&lt;/span&gt;&lt;/span&gt;" style="ellipse;whiteSpace=wrap;html=1;align=center;fontStyle=4;fontFamily=Helvetica;fontSize=11;labelBackgroundColor=none;fillColor=#e1d5e7;strokeColor=#9673a6;" vertex="1" parent="1">
          <mxGeometry x="-490" y="-260" width="100" height="40" as="geometry" />
        </mxCell>
        <mxCell id="Np-ihXZbCFiJYXieuMzo-40" style="edgeStyle=none;shape=connector;rounded=0;orthogonalLoop=1;jettySize=auto;html=1;exitX=1;exitY=0.5;exitDx=0;exitDy=0;entryX=0.5;entryY=0;entryDx=0;entryDy=0;strokeColor=default;align=center;verticalAlign=middle;fontFamily=Helvetica;fontSize=11;fontColor=default;labelBackgroundColor=default;endArrow=none;endFill=0;" edge="1" parent="1" source="Np-ihXZbCFiJYXieuMzo-25" target="Np-ihXZbCFiJYXieuMzo-4">
          <mxGeometry relative="1" as="geometry">
            <mxPoint x="84.9999999999975" y="140" as="sourcePoint" />
          </mxGeometry>
        </mxCell>
        <mxCell id="Np-ihXZbCFiJYXieuMzo-25" value="&lt;span id=&quot;docs-internal-guid-630f9066-7fff-420a-0741-c1174ba038bf&quot;&gt;&lt;span style=&quot;font-size: 12pt; font-family: Calibri, sans-serif; font-variant-numeric: normal; font-variant-east-asian: normal; font-variant-alternates: normal; font-variant-position: normal; font-variant-emoji: normal; vertical-align: baseline; white-space-collapse: preserve;&quot;&gt;Nome&lt;/span&gt;&lt;/span&gt;" style="ellipse;whiteSpace=wrap;html=1;align=center;fontFamily=Helvetica;fontSize=11;labelBackgroundColor=none;fillColor=#e1d5e7;strokeColor=#9673a6;" vertex="1" parent="1">
          <mxGeometry x="-25" y="120" width="100" height="40" as="geometry" />
        </mxCell>
        <mxCell id="Np-ihXZbCFiJYXieuMzo-36" style="edgeStyle=none;shape=connector;rounded=0;orthogonalLoop=1;jettySize=auto;html=1;exitX=1;exitY=0.5;exitDx=0;exitDy=0;entryX=0;entryY=1;entryDx=0;entryDy=0;strokeColor=default;align=center;verticalAlign=middle;fontFamily=Helvetica;fontSize=11;fontColor=default;labelBackgroundColor=default;endArrow=none;endFill=0;" edge="1" parent="1" source="Np-ihXZbCFiJYXieuMzo-26" target="Np-ihXZbCFiJYXieuMzo-3">
          <mxGeometry relative="1" as="geometry" />
        </mxCell>
        <mxCell id="Np-ihXZbCFiJYXieuMzo-26" value="&lt;span id=&quot;docs-internal-guid-630f9066-7fff-420a-0741-c1174ba038bf&quot;&gt;&lt;span style=&quot;font-size: 12pt; font-family: Calibri, sans-serif; font-variant-numeric: normal; font-variant-east-asian: normal; font-variant-alternates: normal; font-variant-position: normal; font-variant-emoji: normal; vertical-align: baseline; white-space-collapse: preserve;&quot;&gt;Nome&lt;/span&gt;&lt;/span&gt;" style="ellipse;whiteSpace=wrap;html=1;align=center;fontFamily=Helvetica;fontSize=11;labelBackgroundColor=none;fillColor=#e1d5e7;strokeColor=#9673a6;" vertex="1" parent="1">
          <mxGeometry x="440" y="190" width="100" height="40" as="geometry" />
        </mxCell>
        <mxCell id="Np-ihXZbCFiJYXieuMzo-39" style="edgeStyle=none;shape=connector;rounded=0;orthogonalLoop=1;jettySize=auto;html=1;exitX=1;exitY=0.5;exitDx=0;exitDy=0;entryX=0;entryY=0.5;entryDx=0;entryDy=0;strokeColor=default;align=center;verticalAlign=middle;fontFamily=Helvetica;fontSize=11;fontColor=default;labelBackgroundColor=default;endArrow=none;endFill=0;" edge="1" parent="1" source="Np-ihXZbCFiJYXieuMzo-27" target="Np-ihXZbCFiJYXieuMzo-4">
          <mxGeometry relative="1" as="geometry" />
        </mxCell>
        <mxCell id="Np-ihXZbCFiJYXieuMzo-27" value="&lt;span id=&quot;docs-internal-guid-03820142-7fff-3fed-28cf-dba5920c03b8&quot;&gt;&lt;span style=&quot;font-size: 12pt; font-family: Calibri, sans-serif; font-variant-numeric: normal; font-variant-east-asian: normal; font-variant-alternates: normal; font-variant-position: normal; font-variant-emoji: normal; text-decoration-skip-ink: none; vertical-align: baseline; white-space-collapse: preserve;&quot;&gt;NContribuinte&lt;/span&gt;&lt;/span&gt;" style="ellipse;whiteSpace=wrap;html=1;align=center;fontStyle=4;fontFamily=Helvetica;fontSize=11;labelBackgroundColor=none;fillColor=#e1d5e7;strokeColor=#9673a6;" vertex="1" parent="1">
          <mxGeometry x="-15" y="180" width="100" height="40" as="geometry" />
        </mxCell>
        <mxCell id="Np-ihXZbCFiJYXieuMzo-28" value="&lt;span id=&quot;docs-internal-guid-03820142-7fff-3fed-28cf-dba5920c03b8&quot;&gt;&lt;span style=&quot;font-size: 12pt; font-family: Calibri, sans-serif; font-variant-numeric: normal; font-variant-east-asian: normal; font-variant-alternates: normal; font-variant-position: normal; font-variant-emoji: normal; text-decoration-skip-ink: none; vertical-align: baseline; white-space-collapse: preserve;&quot;&gt;NContribuinte&lt;/span&gt;&lt;/span&gt;" style="ellipse;whiteSpace=wrap;html=1;align=center;fontStyle=4;fontFamily=Helvetica;fontSize=11;labelBackgroundColor=none;fillColor=#e1d5e7;strokeColor=#9673a6;" vertex="1" parent="1">
          <mxGeometry x="530" y="240" width="100" height="40" as="geometry" />
        </mxCell>
        <mxCell id="Np-ihXZbCFiJYXieuMzo-38" style="edgeStyle=none;shape=connector;rounded=0;orthogonalLoop=1;jettySize=auto;html=1;exitX=0.5;exitY=0;exitDx=0;exitDy=0;entryX=0.25;entryY=1;entryDx=0;entryDy=0;strokeColor=default;align=center;verticalAlign=middle;fontFamily=Helvetica;fontSize=11;fontColor=default;labelBackgroundColor=default;endArrow=none;endFill=0;" edge="1" parent="1" source="Np-ihXZbCFiJYXieuMzo-29" target="Np-ihXZbCFiJYXieuMzo-4">
          <mxGeometry relative="1" as="geometry" />
        </mxCell>
        <mxCell id="Np-ihXZbCFiJYXieuMzo-29" value="&lt;span id=&quot;docs-internal-guid-e9799310-7fff-8ec9-a85f-0b9e393117b9&quot;&gt;&lt;span style=&quot;font-size: 12pt; font-family: Calibri, sans-serif; font-variant-numeric: normal; font-variant-east-asian: normal; font-variant-alternates: normal; font-variant-position: normal; font-variant-emoji: normal; vertical-align: baseline; white-space-collapse: preserve;&quot;&gt;DataNascimento&lt;/span&gt;&lt;/span&gt;" style="ellipse;whiteSpace=wrap;html=1;align=center;fontFamily=Helvetica;fontSize=11;labelBackgroundColor=none;fillColor=#e1d5e7;strokeColor=#9673a6;" vertex="1" parent="1">
          <mxGeometry x="55" y="260" width="120" height="50" as="geometry" />
        </mxCell>
        <mxCell id="Np-ihXZbCFiJYXieuMzo-33" style="edgeStyle=none;shape=connector;rounded=0;orthogonalLoop=1;jettySize=auto;html=1;exitX=0.5;exitY=0;exitDx=0;exitDy=0;entryX=0.5;entryY=1;entryDx=0;entryDy=0;strokeColor=default;align=center;verticalAlign=middle;fontFamily=Helvetica;fontSize=11;fontColor=default;labelBackgroundColor=default;endArrow=none;endFill=0;dashed=1;" edge="1" parent="1" source="Np-ihXZbCFiJYXieuMzo-30" target="Np-ihXZbCFiJYXieuMzo-4">
          <mxGeometry relative="1" as="geometry" />
        </mxCell>
        <mxCell id="Np-ihXZbCFiJYXieuMzo-30" value="&lt;span id=&quot;docs-internal-guid-491ac8fb-7fff-edcc-02f4-893d20c167fb&quot;&gt;&lt;span style=&quot;font-size: 12pt; font-family: Calibri, sans-serif; font-variant-numeric: normal; font-variant-east-asian: normal; font-variant-alternates: normal; font-variant-position: normal; font-variant-emoji: normal; vertical-align: baseline; white-space-collapse: preserve;&quot;&gt;Idade &lt;/span&gt;&lt;/span&gt;" style="ellipse;whiteSpace=wrap;html=1;align=center;dashed=1;fontFamily=Helvetica;fontSize=11;labelBackgroundColor=none;fillColor=#e1d5e7;strokeColor=#9673a6;" vertex="1" parent="1">
          <mxGeometry x="195" y="250" width="100" height="40" as="geometry" />
        </mxCell>
        <mxCell id="Np-ihXZbCFiJYXieuMzo-37" style="edgeStyle=none;shape=connector;rounded=0;orthogonalLoop=1;jettySize=auto;html=1;exitX=1;exitY=0.5;exitDx=0;exitDy=0;entryX=0;entryY=0;entryDx=0;entryDy=0;strokeColor=default;align=center;verticalAlign=middle;fontFamily=Helvetica;fontSize=11;fontColor=default;labelBackgroundColor=default;endArrow=none;endFill=0;" edge="1" parent="1" source="Np-ihXZbCFiJYXieuMzo-31" target="Np-ihXZbCFiJYXieuMzo-3">
          <mxGeometry relative="1" as="geometry" />
        </mxCell>
        <mxCell id="Np-ihXZbCFiJYXieuMzo-31" value="&lt;span id=&quot;docs-internal-guid-e9799310-7fff-8ec9-a85f-0b9e393117b9&quot;&gt;&lt;span style=&quot;font-size: 12pt; font-family: Calibri, sans-serif; font-variant-numeric: normal; font-variant-east-asian: normal; font-variant-alternates: normal; font-variant-position: normal; font-variant-emoji: normal; vertical-align: baseline; white-space-collapse: preserve;&quot;&gt;DataNascimento&lt;/span&gt;&lt;/span&gt;" style="ellipse;whiteSpace=wrap;html=1;align=center;fontFamily=Helvetica;fontSize=11;labelBackgroundColor=none;fillColor=#e1d5e7;strokeColor=#9673a6;" vertex="1" parent="1">
          <mxGeometry x="440" y="110" width="120" height="50" as="geometry" />
        </mxCell>
        <mxCell id="Np-ihXZbCFiJYXieuMzo-34" style="edgeStyle=none;shape=connector;rounded=0;orthogonalLoop=1;jettySize=auto;html=1;exitX=0.5;exitY=0;exitDx=0;exitDy=0;entryX=0.75;entryY=1;entryDx=0;entryDy=0;strokeColor=default;align=center;verticalAlign=middle;fontFamily=Helvetica;fontSize=11;fontColor=default;labelBackgroundColor=default;endArrow=none;endFill=0;dashed=1;" edge="1" parent="1" source="Np-ihXZbCFiJYXieuMzo-32" target="Np-ihXZbCFiJYXieuMzo-3">
          <mxGeometry relative="1" as="geometry" />
        </mxCell>
        <mxCell id="Np-ihXZbCFiJYXieuMzo-32" value="&lt;span id=&quot;docs-internal-guid-491ac8fb-7fff-edcc-02f4-893d20c167fb&quot;&gt;&lt;span style=&quot;font-size: 12pt; font-family: Calibri, sans-serif; font-variant-numeric: normal; font-variant-east-asian: normal; font-variant-alternates: normal; font-variant-position: normal; font-variant-emoji: normal; vertical-align: baseline; white-space-collapse: preserve;&quot;&gt;Idade &lt;/span&gt;&lt;/span&gt;" style="ellipse;whiteSpace=wrap;html=1;align=center;dashed=1;fontFamily=Helvetica;fontSize=11;labelBackgroundColor=none;fillColor=#e1d5e7;strokeColor=#9673a6;" vertex="1" parent="1">
          <mxGeometry x="660" y="240" width="100" height="40" as="geometry" />
        </mxCell>
        <mxCell id="Np-ihXZbCFiJYXieuMzo-35" style="edgeStyle=none;shape=connector;rounded=0;orthogonalLoop=1;jettySize=auto;html=1;exitX=0.5;exitY=0;exitDx=0;exitDy=0;entryX=0.427;entryY=1.1;entryDx=0;entryDy=0;entryPerimeter=0;strokeColor=default;align=center;verticalAlign=middle;fontFamily=Helvetica;fontSize=11;fontColor=default;labelBackgroundColor=default;endArrow=none;endFill=0;" edge="1" parent="1" source="Np-ihXZbCFiJYXieuMzo-28" target="Np-ihXZbCFiJYXieuMzo-3">
          <mxGeometry relative="1" as="geometry" />
        </mxCell>
        <mxCell id="Np-ihXZbCFiJYXieuMzo-45" style="edgeStyle=none;shape=connector;rounded=0;orthogonalLoop=1;jettySize=auto;html=1;exitX=0;exitY=0.5;exitDx=0;exitDy=0;entryX=1;entryY=0.5;entryDx=0;entryDy=0;strokeColor=default;align=center;verticalAlign=middle;fontFamily=Helvetica;fontSize=11;fontColor=default;labelBackgroundColor=none;endArrow=none;endFill=0;" edge="1" parent="1" source="Np-ihXZbCFiJYXieuMzo-41" target="Np-ihXZbCFiJYXieuMzo-5">
          <mxGeometry relative="1" as="geometry" />
        </mxCell>
        <mxCell id="Np-ihXZbCFiJYXieuMzo-41" value="Id" style="ellipse;whiteSpace=wrap;html=1;align=center;fontStyle=4;fontFamily=Helvetica;fontSize=11;labelBackgroundColor=none;fillColor=#e1d5e7;strokeColor=#9673a6;" vertex="1" parent="1">
          <mxGeometry x="190" y="-460" width="100" height="40" as="geometry" />
        </mxCell>
        <mxCell id="Np-ihXZbCFiJYXieuMzo-44" style="edgeStyle=none;shape=connector;rounded=0;orthogonalLoop=1;jettySize=auto;html=1;exitX=0;exitY=0;exitDx=0;exitDy=0;entryX=0.5;entryY=1;entryDx=0;entryDy=0;strokeColor=default;align=center;verticalAlign=middle;fontFamily=Helvetica;fontSize=11;fontColor=default;labelBackgroundColor=default;endArrow=none;endFill=0;" edge="1" parent="1" source="Np-ihXZbCFiJYXieuMzo-42" target="Np-ihXZbCFiJYXieuMzo-5">
          <mxGeometry relative="1" as="geometry" />
        </mxCell>
        <mxCell id="Np-ihXZbCFiJYXieuMzo-42" value="&lt;span id=&quot;docs-internal-guid-7b338daa-7fff-aed2-eb09-3fe29b2d2792&quot;&gt;&lt;span style=&quot;font-size: 12pt; font-family: Calibri, sans-serif; font-variant-numeric: normal; font-variant-east-asian: normal; font-variant-alternates: normal; font-variant-position: normal; font-variant-emoji: normal; vertical-align: baseline; white-space-collapse: preserve;&quot;&gt;Valor&lt;/span&gt;&lt;/span&gt;" style="ellipse;whiteSpace=wrap;html=1;align=center;fontFamily=Helvetica;fontSize=11;labelBackgroundColor=none;fillColor=#e1d5e7;strokeColor=#9673a6;" vertex="1" parent="1">
          <mxGeometry x="140" y="-390" width="100" height="40" as="geometry" />
        </mxCell>
        <mxCell id="Np-ihXZbCFiJYXieuMzo-46" style="edgeStyle=none;shape=connector;rounded=0;orthogonalLoop=1;jettySize=auto;html=1;exitX=0;exitY=0.5;exitDx=0;exitDy=0;entryX=0.5;entryY=0;entryDx=0;entryDy=0;strokeColor=default;align=center;verticalAlign=middle;fontFamily=Helvetica;fontSize=11;fontColor=default;labelBackgroundColor=default;endArrow=none;endFill=0;" edge="1" parent="1" source="Np-ihXZbCFiJYXieuMzo-43" target="Np-ihXZbCFiJYXieuMzo-5">
          <mxGeometry relative="1" as="geometry" />
        </mxCell>
        <mxCell id="Np-ihXZbCFiJYXieuMzo-43" value="&lt;span id=&quot;docs-internal-guid-64a9f194-7fff-caff-a52f-c114be5e5daa&quot;&gt;&lt;span style=&quot;font-size: 12pt; font-family: Calibri, sans-serif; font-variant-numeric: normal; font-variant-east-asian: normal; font-variant-alternates: normal; font-variant-position: normal; font-variant-emoji: normal; vertical-align: baseline; white-space-collapse: preserve;&quot;&gt;Aprovado ?&lt;/span&gt;&lt;/span&gt;" style="ellipse;whiteSpace=wrap;html=1;align=center;fontFamily=Helvetica;fontSize=11;labelBackgroundColor=none;fillColor=#e1d5e7;strokeColor=#9673a6;" vertex="1" parent="1">
          <mxGeometry x="150" y="-520" width="100" height="40" as="geometry" />
        </mxCell>
        <mxCell id="Np-ihXZbCFiJYXieuMzo-49" style="edgeStyle=orthogonalEdgeStyle;shape=link;rounded=0;orthogonalLoop=1;jettySize=auto;html=1;exitX=1;exitY=0.5;exitDx=0;exitDy=0;strokeColor=default;align=center;verticalAlign=middle;fontFamily=Helvetica;fontSize=11;fontColor=default;labelBackgroundColor=default;endArrow=none;endFill=0;" edge="1" parent="1" source="Np-ihXZbCFiJYXieuMzo-47">
          <mxGeometry relative="1" as="geometry">
            <mxPoint x="-90" y="-170" as="targetPoint" />
          </mxGeometry>
        </mxCell>
        <mxCell id="Np-ihXZbCFiJYXieuMzo-63" value="1" style="edgeLabel;html=1;align=center;verticalAlign=middle;resizable=0;points=[];fontFamily=Helvetica;fontSize=11;fontColor=default;labelBackgroundColor=default;" vertex="1" connectable="0" parent="Np-ihXZbCFiJYXieuMzo-49">
          <mxGeometry x="0.3397" y="3" relative="1" as="geometry">
            <mxPoint y="-7" as="offset" />
          </mxGeometry>
        </mxCell>
        <mxCell id="Np-ihXZbCFiJYXieuMzo-50" style="edgeStyle=orthogonalEdgeStyle;shape=connector;rounded=0;orthogonalLoop=1;jettySize=auto;html=1;exitX=0;exitY=0.5;exitDx=0;exitDy=0;entryX=1;entryY=0.5;entryDx=0;entryDy=0;strokeColor=default;align=center;verticalAlign=middle;fontFamily=Helvetica;fontSize=11;fontColor=default;labelBackgroundColor=default;endArrow=none;endFill=0;" edge="1" parent="1" source="Np-ihXZbCFiJYXieuMzo-47" target="Np-ihXZbCFiJYXieuMzo-2">
          <mxGeometry relative="1" as="geometry" />
        </mxCell>
        <mxCell id="Np-ihXZbCFiJYXieuMzo-61" value="N" style="edgeLabel;html=1;align=center;verticalAlign=middle;resizable=0;points=[];fontFamily=Helvetica;fontSize=11;fontColor=default;labelBackgroundColor=default;" vertex="1" connectable="0" parent="Np-ihXZbCFiJYXieuMzo-50">
          <mxGeometry x="-0.0599" relative="1" as="geometry">
            <mxPoint y="-15" as="offset" />
          </mxGeometry>
        </mxCell>
        <mxCell id="Np-ihXZbCFiJYXieuMzo-47" value="&lt;span id=&quot;docs-internal-guid-0b3b21ed-7fff-ce26-790a-0f189331b0e9&quot;&gt;&lt;span style=&quot;font-size: 12pt; font-family: Calibri, sans-serif; font-variant-numeric: normal; font-variant-east-asian: normal; font-variant-alternates: normal; font-variant-position: normal; font-variant-emoji: normal; vertical-align: baseline; white-space-collapse: preserve;&quot;&gt;ENTRA_EM&lt;/span&gt;&lt;/span&gt;" style="shape=rhombus;perimeter=rhombusPerimeter;whiteSpace=wrap;html=1;align=center;fontFamily=Helvetica;fontSize=11;labelBackgroundColor=none;fillColor=#f8cecc;strokeColor=#b85450;" vertex="1" parent="1">
          <mxGeometry x="-360" y="-205" width="120" height="60" as="geometry" />
        </mxCell>
        <mxCell id="Np-ihXZbCFiJYXieuMzo-51" value="&lt;span id=&quot;docs-internal-guid-aa482258-7fff-aab4-a377-e0a4bc7be7d4&quot;&gt;&lt;span style=&quot;font-size: 12pt; font-family: Calibri, sans-serif; font-variant-numeric: normal; font-variant-east-asian: normal; font-variant-alternates: normal; font-variant-position: normal; font-variant-emoji: normal; vertical-align: baseline; white-space-collapse: preserve;&quot;&gt;REALIZA &lt;/span&gt;&lt;/span&gt;" style="shape=rhombus;perimeter=rhombusPerimeter;whiteSpace=wrap;html=1;align=center;fontFamily=Helvetica;fontSize=11;labelBackgroundColor=none;fillColor=#f8cecc;strokeColor=#b85450;" vertex="1" parent="1">
          <mxGeometry x="500" y="-10" width="120" height="60" as="geometry" />
        </mxCell>
        <mxCell id="Np-ihXZbCFiJYXieuMzo-57" style="edgeStyle=orthogonalEdgeStyle;shape=link;rounded=0;orthogonalLoop=1;jettySize=auto;html=1;exitX=0.5;exitY=0;exitDx=0;exitDy=0;strokeColor=default;align=center;verticalAlign=middle;fontFamily=Helvetica;fontSize=11;fontColor=default;labelBackgroundColor=default;endArrow=none;endFill=0;" edge="1" parent="1" source="Np-ihXZbCFiJYXieuMzo-55">
          <mxGeometry relative="1" as="geometry">
            <mxPoint x="140" y="-30" as="targetPoint" />
          </mxGeometry>
        </mxCell>
        <mxCell id="Np-ihXZbCFiJYXieuMzo-67" value="1" style="edgeLabel;html=1;align=center;verticalAlign=middle;resizable=0;points=[];fontFamily=Helvetica;fontSize=11;fontColor=default;labelBackgroundColor=default;" vertex="1" connectable="0" parent="Np-ihXZbCFiJYXieuMzo-57">
          <mxGeometry x="0.8416" y="-1" relative="1" as="geometry">
            <mxPoint x="-11" y="-3" as="offset" />
          </mxGeometry>
        </mxCell>
        <mxCell id="Np-ihXZbCFiJYXieuMzo-55" value="&lt;span id=&quot;docs-internal-guid-ad0b99d1-7fff-c9a5-4847-4317e90f36ac&quot;&gt;&lt;span style=&quot;font-size: 12pt; font-family: Calibri, sans-serif; font-variant-numeric: normal; font-variant-east-asian: normal; font-variant-alternates: normal; font-variant-position: normal; font-variant-emoji: normal; vertical-align: baseline; white-space-collapse: preserve;&quot;&gt;PRODUTOR_DE &lt;/span&gt;&lt;/span&gt;" style="shape=rhombus;perimeter=rhombusPerimeter;whiteSpace=wrap;html=1;align=center;fontFamily=Helvetica;fontSize=11;labelBackgroundColor=none;fillColor=#f8cecc;strokeColor=#b85450;" vertex="1" parent="1">
          <mxGeometry x="155" y="10" width="160" height="70" as="geometry" />
        </mxCell>
        <mxCell id="Np-ihXZbCFiJYXieuMzo-59" style="edgeStyle=orthogonalEdgeStyle;shape=link;rounded=0;orthogonalLoop=1;jettySize=auto;html=1;exitX=1;exitY=1;exitDx=0;exitDy=0;strokeColor=default;align=center;verticalAlign=middle;fontFamily=Helvetica;fontSize=11;fontColor=default;labelBackgroundColor=default;endArrow=none;endFill=0;entryX=0.5;entryY=0;entryDx=0;entryDy=0;" edge="1" parent="1" source="Np-ihXZbCFiJYXieuMzo-58" target="Np-ihXZbCFiJYXieuMzo-1">
          <mxGeometry relative="1" as="geometry">
            <mxPoint x="140" y="-340" as="targetPoint" />
          </mxGeometry>
        </mxCell>
        <mxCell id="Np-ihXZbCFiJYXieuMzo-68" value="1" style="edgeLabel;html=1;align=center;verticalAlign=middle;resizable=0;points=[];fontFamily=Helvetica;fontSize=11;fontColor=default;labelBackgroundColor=default;" vertex="1" connectable="0" parent="Np-ihXZbCFiJYXieuMzo-59">
          <mxGeometry x="0.7938" y="-1" relative="1" as="geometry">
            <mxPoint x="11" y="4" as="offset" />
          </mxGeometry>
        </mxCell>
        <mxCell id="Np-ihXZbCFiJYXieuMzo-60" style="edgeStyle=orthogonalEdgeStyle;shape=link;rounded=0;orthogonalLoop=1;jettySize=auto;html=1;exitX=0.5;exitY=0;exitDx=0;exitDy=0;entryX=0;entryY=0.5;entryDx=0;entryDy=0;strokeColor=default;align=center;verticalAlign=middle;fontFamily=Helvetica;fontSize=11;fontColor=default;labelBackgroundColor=default;endArrow=none;endFill=0;" edge="1" parent="1" source="Np-ihXZbCFiJYXieuMzo-58" target="Np-ihXZbCFiJYXieuMzo-5">
          <mxGeometry relative="1" as="geometry" />
        </mxCell>
        <mxCell id="Np-ihXZbCFiJYXieuMzo-69" value="1" style="edgeLabel;html=1;align=center;verticalAlign=middle;resizable=0;points=[];fontFamily=Helvetica;fontSize=11;fontColor=default;labelBackgroundColor=default;" vertex="1" connectable="0" parent="Np-ihXZbCFiJYXieuMzo-60">
          <mxGeometry x="0.8638" relative="1" as="geometry">
            <mxPoint x="-8" y="10" as="offset" />
          </mxGeometry>
        </mxCell>
        <mxCell id="Np-ihXZbCFiJYXieuMzo-58" value="&lt;span id=&quot;docs-internal-guid-f5956ddd-7fff-9736-7c2e-567020e59c74&quot;&gt;&lt;span style=&quot;font-size: 12pt; font-family: Calibri, sans-serif; font-variant-numeric: normal; font-variant-east-asian: normal; font-variant-alternates: normal; font-variant-position: normal; font-variant-emoji: normal; vertical-align: baseline; white-space-collapse: preserve;&quot;&gt;POSSUEM &lt;/span&gt;&lt;/span&gt;" style="shape=rhombus;perimeter=rhombusPerimeter;whiteSpace=wrap;html=1;align=center;fontFamily=Helvetica;fontSize=11;labelBackgroundColor=none;fillColor=#f8cecc;strokeColor=#b85450;" vertex="1" parent="1">
          <mxGeometry x="5" y="-340" width="120" height="60" as="geometry" />
        </mxCell>
      </root>
    </mxGraphModel>
  </diagram>
</mxfile>
